<svg width="13" height="16" viewBox="0 0 13 16" fill="none" xmlns="http://www.w3.org/2000/svg">
<g clip-path="url(#clip0_970_3044)">
<path fill-rule="evenodd" clip-rule="evenodd" d="M12.0856 5.53474C11.3301 4.75635 10.6719 4.00383 9.28252 3.92549C8.16117 3.87374 7.64944 4.60038 6.60101 4.62626C5.62615 4.65213 5.69906 3.82199 3.67577 4.05558C1.9205 4.26258 0.384634 6.13129 0.506828 8.75251C0.629022 11.5815 2.48151 15.5 4.21181 15.5C5.43037 15.4741 5.72337 14.851 6.72252 14.851C7.96539 14.851 8.25839 15.6294 9.23324 15.4734C10.9149 15.2139 12.4994 12.385 12.4994 11.4772C11.5732 10.9583 10.6469 10.0757 10.5247 8.59655C10.4275 7.11739 11.2802 6.18304 12.0849 5.53402L12.0856 5.53474Z" fill="white"/>
<path fill-rule="evenodd" clip-rule="evenodd" d="M6.26005 4.13321C6.13785 3.09535 6.79608 0.837087 9.11237 0.5C9.38038 2.23862 8.03963 4.2367 6.26005 4.13321Z" fill="white"/>
</g>
<defs>
<clipPath id="clip0_970_3044">
<rect width="12" height="15" fill="white" transform="translate(0.5 0.5)"/>
</clipPath>
</defs>
</svg>
