<svg width="24" height="25" viewBox="0 0 24 25" fill="none" xmlns="http://www.w3.org/2000/svg">
<mask id="path-1-inside-1_708_5362" fill="white">
<path fill-rule="evenodd" clip-rule="evenodd" d="M9.77474 5C8.81063 5 7.98374 5.68782 7.80818 6.63582L7.74074 7H6C4.89543 7 4 7.89543 4 9V17C4 18.1046 4.89543 19 6 19H18C19.1046 19 20 18.1046 20 17V9C20 7.89543 19.1046 7 18 7H16.2593L16.1918 6.63582C16.0163 5.68782 15.1894 5 14.2253 5H9.77474Z"/>
</mask>
<path d="M7.80818 6.63582L6.8249 6.45373V6.45373L7.80818 6.63582ZM7.74074 7V8H8.57256L8.72402 7.18209L7.74074 7ZM16.2593 7L15.276 7.18209L15.4274 8H16.2593V7ZM16.1918 6.63582L17.1751 6.45373V6.45373L16.1918 6.63582ZM8.79146 6.81791C8.87924 6.34391 9.29269 6 9.77474 6V4C8.32857 4 7.08823 5.03173 6.8249 6.45373L8.79146 6.81791ZM8.72402 7.18209L8.79146 6.81791L6.8249 6.45373L6.75746 6.81791L8.72402 7.18209ZM6 8H7.74074V6H6V8ZM5 9C5 8.44772 5.44772 8 6 8V6C4.34315 6 3 7.34315 3 9H5ZM5 17V9H3V17H5ZM6 18C5.44772 18 5 17.5523 5 17H3C3 18.6569 4.34315 20 6 20V18ZM18 18H6V20H18V18ZM19 17C19 17.5523 18.5523 18 18 18V20C19.6569 20 21 18.6569 21 17H19ZM19 9V17H21V9H19ZM18 8C18.5523 8 19 8.44772 19 9H21C21 7.34315 19.6569 6 18 6V8ZM16.2593 8H18V6H16.2593V8ZM15.2085 6.81791L15.276 7.18209L17.2425 6.81791L17.1751 6.45373L15.2085 6.81791ZM14.2253 6C14.7073 6 15.1208 6.34391 15.2085 6.81791L17.1751 6.45373C16.9118 5.03173 15.6714 4 14.2253 4V6ZM9.77474 6H14.2253V4H9.77474V6Z" fill="#245DE5" mask="url(#path-1-inside-1_708_5362)"/>
<circle cx="12" cy="13" r="3" stroke="#245DE5"/>
<path d="M16 10H17" stroke="#245DE5" stroke-linecap="round"/>
</svg>
