<svg width="24" height="24" viewBox="0 0 24 24" fill="none" xmlns="http://www.w3.org/2000/svg">
<path d="M7.125 13.9013L7.37536 14.3341L7.625 14.1897V13.9013H7.125ZM5.625 17.25H5.125V17.75H5.625V17.25ZM18.375 17.25V17.75H18.875V17.25H18.375ZM16.875 13.9013H16.375V14.1897L16.6246 14.3341L16.875 13.9013ZM7.625 10.125C7.625 7.70875 9.58375 5.75 12 5.75V4.75C9.03147 4.75 6.625 7.15647 6.625 10.125H7.625ZM7.625 13.9013V10.125H6.625V13.9013H7.625ZM6.125 16.5C6.125 15.5753 6.62681 14.7672 7.37536 14.3341L6.87464 13.4685C5.82979 14.073 5.125 15.2039 5.125 16.5H6.125ZM6.125 17.25V16.5H5.125V17.25H6.125ZM18.375 16.75H5.625V17.75H18.375V16.75ZM17.875 16.5V17.25H18.875V16.5H17.875ZM16.6246 14.3341C17.3732 14.7672 17.875 15.5753 17.875 16.5H18.875C18.875 15.2039 18.1702 14.073 17.1254 13.4685L16.6246 14.3341ZM16.375 10.125V13.9013H17.375V10.125H16.375ZM12 5.75C14.4162 5.75 16.375 7.70875 16.375 10.125H17.375C17.375 7.15647 14.9685 4.75 12 4.75V5.75Z" fill="#245DE5"/>
<path d="M9 17.25H15V17.25C15 18.9069 13.6569 20.25 12 20.25V20.25C10.3431 20.25 9 18.9069 9 17.25V17.25Z" stroke="#245DE5"/>
<path d="M10.5 5.25H13.5V4.5C13.5 3.67157 12.8284 3 12 3V3C11.1716 3 10.5 3.67157 10.5 4.5V5.25Z" stroke="#245DE5"/>
</svg>
