<?xml version="1.0" encoding="UTF-8"?>
<svg xmlns="http://www.w3.org/2000/svg" xmlns:xlink="http://www.w3.org/1999/xlink" width="118px" height="20px" viewBox="0 0 118 20" version="1.1">
<g id="surface1">
<path style=" stroke:none;fill-rule:nonzero;fill:rgb(0%,0%,0%);fill-opacity:1;" d="M 0.210938 2.121094 L 0.210938 14.980469 L 9.320312 14.980469 L 9.320312 2.121094 Z M 7.546875 3.582031 L 7.546875 13.515625 L 1.984375 13.515625 L 1.984375 3.582031 Z M 13.460938 0.175781 L 13.460938 19.957031 L 15.277344 19.957031 L 15.277344 0.175781 Z M 24.515625 1.703125 C 21.625 1.703125 19.589844 4.390625 19.589844 8.582031 C 19.589844 12.796875 21.625 15.484375 24.515625 15.484375 C 27.386719 15.484375 29.445312 12.796875 29.445312 8.582031 C 29.445312 4.390625 27.386719 1.703125 24.515625 1.703125 Z M 24.515625 3.34375 C 26.421875 3.34375 27.714844 5.394531 27.714844 8.582031 C 27.714844 11.792969 26.421875 13.890625 24.515625 13.890625 C 22.613281 13.890625 21.320312 11.792969 21.320312 8.582031 C 21.320312 5.394531 22.613281 3.34375 24.515625 3.34375 Z M 33.738281 0.175781 L 33.738281 19.957031 L 35.535156 19.957031 L 35.535156 0.175781 Z M 28.855469 7.710938 L 28.855469 9.195312 L 34.527344 9.195312 L 34.527344 7.710938 Z M 54.433594 0.199219 L 54.433594 19.9375 L 56.183594 19.9375 L 56.183594 0.199219 Z M 47.226562 7.273438 L 47.226562 8.78125 L 51.015625 8.78125 L 51.015625 7.273438 Z M 50.46875 0.65625 L 50.46875 18.933594 L 52.175781 18.933594 L 52.175781 0.65625 Z M 43.414062 3.253906 L 43.414062 5.765625 C 43.414062 9.390625 41.882812 12.992188 39.125 14.652344 L 40.242188 16.007812 C 43.152344 14.171875 44.816406 10.089844 44.816406 5.765625 L 44.816406 3.253906 Z M 43.789062 3.253906 L 43.789062 5.765625 C 43.789062 9.894531 45.386719 13.78125 48.277344 15.527344 L 49.394531 14.195312 C 46.679688 12.621094 45.191406 9.195312 45.191406 5.765625 L 45.191406 3.253906 Z M 39.671875 2.492188 L 39.671875 3.996094 L 48.714844 3.996094 L 48.714844 2.492188 Z M 61.832031 10.832031 L 61.832031 12.292969 L 75.433594 12.292969 L 75.433594 10.832031 Z M 59.53125 15.898438 L 59.53125 17.402344 L 77.46875 17.402344 L 77.46875 15.898438 Z M 61.832031 1.878906 L 61.832031 11.289062 L 63.671875 11.289062 L 63.671875 3.363281 L 75.214844 3.363281 L 75.214844 1.878906 Z M 63.082031 6.289062 L 63.082031 7.730469 L 74.796875 7.730469 L 74.796875 6.289062 Z M 79.679688 16.007812 L 79.679688 17.511719 L 97.617188 17.511719 L 97.617188 16.007812 Z M 87.695312 11.769531 L 87.695312 16.640625 L 89.511719 16.640625 L 89.511719 11.769531 Z M 81.847656 1.660156 L 81.847656 3.125 L 93.609375 3.125 L 93.609375 6.179688 L 81.914062 6.179688 L 81.914062 11.597656 L 83.710938 11.597656 L 83.710938 7.644531 L 95.402344 7.644531 L 95.402344 1.660156 Z M 81.914062 10.832031 L 81.914062 12.316406 L 95.863281 12.316406 L 95.863281 10.832031 Z M 101.710938 2.164062 L 101.710938 3.671875 L 114.457031 3.671875 L 114.457031 2.164062 Z M 99.828125 15.679688 L 99.828125 17.1875 L 117.71875 17.1875 L 117.71875 15.679688 Z M 106.769531 8.625 L 106.769531 16.421875 L 108.585938 16.421875 L 108.585938 8.625 Z M 113.777344 2.164062 L 113.777344 4.128906 C 113.777344 6.488281 113.777344 9.257812 113.03125 13.039062 L 114.851562 13.277344 C 115.574219 9.28125 115.574219 6.574219 115.574219 4.128906 L 115.574219 2.164062 Z M 113.777344 2.164062 "/>
</g>
</svg>
