<?xml version="1.0" encoding="UTF-8"?>
<svg xmlns="http://www.w3.org/2000/svg" xmlns:xlink="http://www.w3.org/1999/xlink" width="198px" height="34px" viewBox="0 0 198 34" version="1.1">
<g id="surface1">
<path style=" stroke:none;fill-rule:nonzero;fill:rgb(0%,0%,0%);fill-opacity:1;" d="M 0.351562 3.601562 L 0.351562 25.464844 L 15.640625 25.464844 L 15.640625 3.601562 Z M 12.664062 6.089844 L 12.664062 22.980469 L 3.328125 22.980469 L 3.328125 6.089844 Z M 22.585938 0.300781 L 22.585938 33.929688 L 25.632812 33.929688 L 25.632812 0.300781 Z M 41.140625 2.898438 C 36.289062 2.898438 32.871094 7.464844 32.871094 14.589844 C 32.871094 21.753906 36.289062 26.320312 41.140625 26.320312 C 45.953125 26.320312 49.40625 21.753906 49.40625 14.589844 C 49.40625 7.464844 45.953125 2.898438 41.140625 2.898438 Z M 41.140625 5.683594 C 44.335938 5.683594 46.503906 9.171875 46.503906 14.589844 C 46.503906 20.046875 44.335938 23.609375 41.140625 23.609375 C 37.941406 23.609375 35.773438 20.046875 35.773438 14.589844 C 35.773438 9.171875 37.941406 5.683594 41.140625 5.683594 Z M 56.609375 0.300781 L 56.609375 33.929688 L 59.625 33.929688 L 59.625 0.300781 Z M 48.414062 13.105469 L 48.414062 15.628906 L 57.933594 15.628906 L 57.933594 13.105469 Z M 91.335938 0.335938 L 91.335938 33.894531 L 94.273438 33.894531 L 94.273438 0.335938 Z M 79.246094 12.363281 L 79.246094 14.925781 L 85.601562 14.925781 L 85.601562 12.363281 Z M 84.683594 1.117188 L 84.683594 32.183594 L 87.550781 32.183594 L 87.550781 1.117188 Z M 72.851562 5.535156 L 72.851562 9.800781 C 72.851562 15.964844 70.277344 22.089844 65.648438 24.910156 L 67.523438 27.210938 C 72.410156 24.09375 75.203125 17.152344 75.203125 9.800781 L 75.203125 5.535156 Z M 73.476562 5.535156 L 73.476562 9.800781 C 73.476562 16.816406 76.15625 23.425781 81.007812 26.394531 L 82.882812 24.128906 C 78.324219 21.457031 75.828125 15.628906 75.828125 9.800781 L 75.828125 5.535156 Z M 66.566406 4.234375 L 66.566406 6.796875 L 81.742188 6.796875 L 81.742188 4.234375 Z M 103.753906 18.414062 L 103.753906 20.902344 L 126.574219 20.902344 L 126.574219 18.414062 Z M 99.894531 27.027344 L 99.894531 29.585938 L 129.992188 29.585938 L 129.992188 27.027344 Z M 103.753906 3.195312 L 103.753906 19.195312 L 106.839844 19.195312 L 106.839844 5.71875 L 126.207031 5.71875 L 126.207031 3.195312 Z M 105.847656 10.691406 L 105.847656 13.144531 L 125.507812 13.144531 L 125.507812 10.691406 Z M 133.699219 27.210938 L 133.699219 29.773438 L 163.796875 29.773438 L 163.796875 27.210938 Z M 147.148438 20.011719 L 147.148438 28.289062 L 150.199219 28.289062 L 150.199219 20.011719 Z M 137.335938 2.824219 L 137.335938 5.3125 L 157.070312 5.3125 L 157.070312 10.507812 L 137.449219 10.507812 L 137.449219 19.714844 L 140.460938 19.714844 L 140.460938 12.996094 L 160.085938 12.996094 L 160.085938 2.824219 Z M 137.449219 18.414062 L 137.449219 20.9375 L 160.855469 20.9375 L 160.855469 18.414062 Z M 170.664062 3.675781 L 170.664062 6.238281 L 192.054688 6.238281 L 192.054688 3.675781 Z M 167.503906 26.65625 L 167.503906 29.214844 L 197.527344 29.214844 L 197.527344 26.65625 Z M 179.15625 14.664062 L 179.15625 27.917969 L 182.203125 27.917969 L 182.203125 14.664062 Z M 190.914062 3.675781 L 190.914062 7.019531 C 190.914062 11.027344 190.914062 15.742188 189.664062 22.164062 L 192.714844 22.570312 C 193.925781 15.777344 193.925781 11.175781 193.925781 7.019531 L 193.925781 3.675781 Z M 190.914062 3.675781 "/>
</g>
</svg>
